<?xml version="1.0" encoding="utf-8"?>
<!-- Generator: Adobe Illustrator 18.0.0, SVG Export Plug-In . SVG Version: 6.00 Build 0)  -->
<!DOCTYPE svg PUBLIC "-//W3C//DTD SVG 1.1//EN" "http://www.w3.org/Graphics/SVG/1.1/DTD/svg11.dtd">
<svg version="1.1" id="Layer_1" xmlns="http://www.w3.org/2000/svg" xmlns:xlink="http://www.w3.org/1999/xlink" x="0px" y="0px"
	 viewBox="0 0 266.6 135.2" enable-background="new 0 0 266.6 135.2" xml:space="preserve">
<g>
	<path fill="#FDBA36" d="M137.8,0.4c-15-2.7-29.3,7.3-32,22.3c-2.7,15,7.3,29.2,22.3,31.9c15,2.7,29.3-7.3,31.9-22.2
		C162.7,17.4,152.8,3.1,137.8,0.4z M123.3,14.4c-0.3,0-0.5,0.1-0.6,0.2c-0.1,0.1-0.1,0.2-0.1,0.3v12v1.6v12c0,0.1,0,0.2,0.1,0.3
		c0.1,0.1,0.3,0.1,0.6,0.2v0.3H118v-0.3c0.3,0,0.5-0.1,0.6-0.2c0.1-0.1,0.1-0.2,0.1-0.3V14.9c0-0.1,0-0.2-0.1-0.3
		c-0.1-0.1-0.3-0.1-0.6-0.2v-0.3h5.3V14.4z M149.5,14.4c-0.3,0-0.5,0.1-0.6,0.2c-0.1,0.1-0.1,0.2-0.1,0.3v25.6c0,0.1,0,0.2,0.1,0.3
		c0.1,0.1,0.3,0.1,0.6,0.2v0.3h-5.3v-0.3c0.3,0,0.5-0.1,0.6-0.2c0.1-0.1,0.1-0.2,0.1-0.3V29.5h-11.6v10.9c0,0.1,0,0.2,0.1,0.3
		c0.1,0.1,0.3,0.1,0.6,0.2v0.3h-5.3v-0.3c0.3,0,0.5-0.1,0.6-0.2c0.1-0.1,0.1-0.2,0.1-0.3V14.9c0-0.1,0-0.2-0.1-0.3
		c-0.1-0.1-0.3-0.1-0.6-0.2v-0.3h5.3v0.3c-0.3,0-0.5,0.1-0.6,0.2c-0.1,0.1-0.1,0.2-0.1,0.3v11h11.6v-11c0-0.1,0-0.2-0.1-0.3
		c-0.1-0.1-0.3-0.1-0.6-0.2v-0.3h5.3V14.4z M152.2,39.9h-0.5v1.3h-0.3v-1.3h-0.5v-0.3h1.3V39.9z M154,41.2l-0.1-0.9
		c0-0.1,0-0.3,0-0.4h0c0,0.1-0.1,0.3-0.1,0.5l-0.3,0.9h-0.3l-0.3-0.9c0-0.1-0.1-0.3-0.1-0.5h0c0,0.1,0,0.3,0,0.4l-0.1,0.9h-0.3
		l0.1-1.6h0.5l0.3,0.8c0,0.1,0.1,0.2,0.1,0.4h0c0-0.1,0.1-0.3,0.1-0.4l0.3-0.8h0.5l0.1,1.6H154z"/>
	<g>
		<g>
			<g>
				<path fill="#FFFFFF" d="M193.6,130.3c0,0.7-0.3,1.3-0.9,1.8c-0.6,0.5-1.3,0.7-2.2,0.7c-1.9,0-3.7-0.9-5.2-2.8v3.5
					c1.6,1.2,3.3,1.8,5.2,1.8c1.6,0,3-0.5,4-1.4c1-1,1.5-2.2,1.5-3.8c0-2.2-1.2-3.9-3.5-5.3l-2.1-1.2c-0.9-0.6-1.6-1.1-2-1.6
					c-0.4-0.5-0.6-1-0.6-1.6c0-0.6,0.3-1.2,0.9-1.6c0.6-0.4,1.3-0.6,2.2-0.6c1.6,0,3.1,0.7,4.5,2v-3.1c-1.3-0.9-2.8-1.4-4.4-1.4
					c-1.7,0-3,0.5-4.1,1.4c-1,0.9-1.6,2.2-1.6,3.7c0,1,0.3,1.9,0.8,2.7c0.6,0.8,1.5,1.6,2.8,2.4l2.1,1.3
					C192.7,128,193.6,129.1,193.6,130.3L193.6,130.3z M163.2,135h11.2v-2.4h-8.4v-6h7.9v-2.5h-7.9v-5.9h8.1v-2.5h-10.9V135z
					 M141.1,123.7l-6.4-7.9h-2.6V135h2.8v-15l6,7.4h0.5l5.9-7.4v15h2.8v-19.2h-2.6L141.1,123.7z M114.8,120.2
					c1.4,1.4,2.2,3.1,2.2,5.1c0,2.1-0.7,3.8-2.2,5.2c-1.4,1.4-3.2,2.1-5.4,2.1c-2.1,0-3.9-0.7-5.3-2.1c-1.4-1.4-2.1-3.1-2.1-5.2
					c0-2.1,0.7-3.9,2.1-5.3c1.4-1.4,3.2-2.1,5.4-2.1C111.6,118.1,113.4,118.8,114.8,120.2L114.8,120.2z M102.1,118.3
					c-1.9,1.9-2.9,4.3-2.9,7.1c0,2.8,1,5.1,2.9,7c1.9,1.9,4.3,2.8,7.2,2.8c3,0,5.5-0.9,7.5-2.8c2-1.9,3-4.2,3-7c0-2.8-1-5.2-3-7.1
					c-2-1.9-4.4-2.8-7.4-2.8C106.5,115.5,104,116.4,102.1,118.3L102.1,118.3z M84,124.1H73.2v-8.3h-2.8V135h2.8v-8.4H84v8.4h2.8
					v-19.2H84V124.1z"/>
			</g>
		</g>
		<g>
			<path fill="#FFFFFF" d="M262.7,96.1l-19.4-22.4h-3.3v28.8h3.9V80.4l19.3,22.2h3.5V73.8h-3.9V96.1z M224.8,80.4
				c2.2,2.1,3.2,4.7,3.2,7.7c0,3.1-1.1,5.8-3.2,7.9c-2.2,2.1-4.8,3.2-8.1,3.2c-3.2,0-5.9-1-8-3.1c-2.1-2.1-3.2-4.7-3.2-7.8
				c0-3.2,1.1-5.8,3.2-7.9c2.1-2.1,4.8-3.1,8.1-3.1C220,77.3,222.6,78.3,224.8,80.4L224.8,80.4z M205.6,77.6
				c-2.9,2.8-4.4,6.4-4.4,10.7c0,4.2,1.4,7.7,4.3,10.5c2.9,2.8,6.5,4.2,10.9,4.2c4.5,0,8.3-1.4,11.3-4.2c3-2.8,4.5-6.3,4.5-10.6
				c0-4.2-1.5-7.8-4.4-10.6c-3-2.8-6.7-4.2-11.1-4.2C212.2,73.3,208.5,74.7,205.6,77.6L205.6,77.6z M187.6,102.6h4.1V73.8h-4.1
				V102.6z M154.6,77.4h9.9v25.2h4.1V77.4h10.1v-3.7h-24.1V77.4z M134.3,90.4l4.3-10.4l4.7,10.4H134.3z M124.8,102.6h4.2l3.6-8.5
				H145l3.8,8.5h4.2l-12.9-29h-2.9L124.8,102.6z M99.2,77.4h9.9v25.2h4.1V77.4h10.1v-3.7H99.2V77.4z M86.1,102.6h4.1V73.8h-4.1
				V102.6z M65.2,94l-8.7-20.3h-4.2l12.4,29h0.9l12.2-29h-4.1L65.2,94z M40.4,96.1L21,73.8h-3.3v28.8h3.9V80.4l19.3,22.2h3.5V73.8
				h-3.9V96.1z M0,102.6h4.1V73.8H0V102.6z"/>
		</g>
		<g>
			<g>
				<path fill="#FFFFFF" d="M201.2,132.2h-1.1v2.8h-0.5v-2.8h-1.1v-0.4h2.7V132.2z"/>
				<path fill="#FFFFFF" d="M204.7,135h-0.5v-2.5h0l-1,1.3h-0.1l-1-1.3h0v2.5h-0.5v-3.2h0.4l1.1,1.3l1.1-1.3h0.4V135z"/>
			</g>
		</g>
	</g>
</g>
</svg>
