<?xml version="1.0" encoding="utf-8"?>
<!-- Generator: Adobe Illustrator 18.0.0, SVG Export Plug-In . SVG Version: 6.00 Build 0)  -->
<!DOCTYPE svg PUBLIC "-//W3C//DTD SVG 1.1//EN" "http://www.w3.org/Graphics/SVG/1.1/DTD/svg11.dtd">
<svg version="1.1" id="Layer_1" xmlns="http://www.w3.org/2000/svg" xmlns:xlink="http://www.w3.org/1999/xlink" x="0px" y="0px"
	 viewBox="0 0 55.1 55.1" enable-background="new 0 0 55.1 55.1" xml:space="preserve">
<g>
	<g>
		<g>
			<g display="none">
				
					<linearGradient id="SVGID_1_" gradientUnits="userSpaceOnUse" x1="-614.2381" y1="402.1923" x2="-613.6015" y2="401.5557" gradientTransform="matrix(60.7391 10.8691 -10.8799 60.7406 41661.2383 -17688.1387)">
					<stop  offset="0.599" style="stop-color:#C1C9CE"/>
					<stop  offset="1" style="stop-color:#7F8386"/>
				</linearGradient>
				<path display="inline" fill="url(#SVGID_1_)" d="M47.5,34.9C45.4,46.8,34,54.7,22.1,52.6C10.2,50.4,2.3,39.1,4.5,27.2
					C6.6,15.3,17.9,7.4,29.8,9.5C41.7,11.7,49.6,23,47.5,34.9z"/>
			</g>
			
				<radialGradient id="SVGID_2_" cx="-590.662" cy="376.6057" r="0.5749" gradientTransform="matrix(110.2896 19.7361 -19.759 110.3123 72633.1172 -29876.3535)" gradientUnits="userSpaceOnUse">
				<stop  offset="0" style="stop-color:#FED685"/>
				<stop  offset="0.2171" style="stop-color:#FECB68"/>
				<stop  offset="0.4818" style="stop-color:#FEBF44"/>
				<stop  offset="0.6228" style="stop-color:#FDBA36"/>
				<stop  offset="0.9807" style="stop-color:#DBA12E"/>
			</radialGradient>
			<path fill="url(#SVGID_2_)" d="M54.6,32.4c-2.7,14.9-17,24.9-31.9,22.2c-15-2.7-24.9-17-22.3-31.9c2.7-15,17-24.9,32-22.3
				C47.4,3.1,57.3,17.4,54.6,32.4z"/>
		</g>
	</g>
</g>
<g>
	<polygon fill="#0071B9" points="45.5,39.9 46,39.9 46,41.2 46.3,41.2 46.3,39.9 46.8,39.9 46.8,39.6 45.5,39.6 	"/>
	<path fill="#0071B9" d="M48.8,39.6h-0.5L48,40.4c0,0.1-0.1,0.3-0.1,0.4h0c0-0.2-0.1-0.3-0.1-0.4l-0.3-0.8H47l-0.1,1.6h0.3l0.1-0.9
		c0-0.1,0-0.3,0-0.4h0c0,0.1,0.1,0.3,0.1,0.5l0.3,0.9h0.3l0.3-0.9c0-0.1,0.1-0.3,0.1-0.5h0c0,0.2,0,0.3,0,0.4l0.1,0.9h0.3L48.8,39.6
		z"/>
	<path fill="#0071B9" d="M12.6,14.4c0.3,0,0.5,0.1,0.6,0.2c0.1,0.1,0.1,0.2,0.1,0.3v25.6c0,0.1,0,0.2-0.1,0.3
		c-0.1,0.1-0.3,0.1-0.6,0.2v0.3h5.3v-0.3c-0.3,0-0.5-0.1-0.6-0.2c-0.1-0.1-0.1-0.2-0.1-0.3v-12v-1.6v-12c0-0.1,0-0.2,0.1-0.3
		c0.1-0.1,0.3-0.1,0.6-0.2v-0.3h-5.3V14.4z"/>
	<path fill="#0071B9" d="M38.8,14.4c0.3,0,0.5,0.1,0.6,0.2c0.1,0.1,0.1,0.2,0.1,0.3v11H27.9v-11c0-0.1,0-0.2,0.1-0.3
		c0.1-0.1,0.3-0.1,0.6-0.2v-0.3h-5.3v0.3c0.3,0,0.5,0.1,0.6,0.2c0.1,0.1,0.1,0.2,0.1,0.3v25.6c0,0.1,0,0.2-0.1,0.3
		c-0.1,0.1-0.3,0.1-0.6,0.2v0.3h5.3v-0.3c-0.3,0-0.5-0.1-0.6-0.2c-0.1-0.1-0.1-0.2-0.1-0.3V29.5h11.6v10.9c0,0.1,0,0.2-0.1,0.3
		c-0.1,0.1-0.3,0.1-0.6,0.2v0.3h5.3v-0.3c-0.3,0-0.5-0.1-0.6-0.2c-0.1-0.1-0.1-0.2-0.1-0.3V14.9c0-0.1,0-0.2,0.1-0.3
		c0.1-0.1,0.3-0.1,0.6-0.2v-0.3h-5.3V14.4z"/>
</g>
</svg>
